<svg width="640" height="360" viewBox="0 0 640 360" fill="none" xmlns="http://www.w3.org/2000/svg">
<rect width="640" height="360" fill="#DBDBDB"/>
<path d="M385.714 101.333H254.286C247.317 101.341 240.635 104.106 235.707 109.022C230.779 113.938 228.008 120.603 228 127.555V232.444C228.008 239.396 230.779 246.062 235.707 250.978C240.635 255.894 247.317 258.659 254.286 258.666H385.714C392.683 258.659 399.365 255.894 404.293 250.978C409.221 246.062 411.992 239.396 412 232.444V127.555C411.992 120.603 409.221 113.938 404.293 109.022C399.365 104.106 392.683 101.341 385.714 101.333ZM352.857 127.555C356.756 127.555 360.568 128.709 363.81 130.87C367.052 133.031 369.579 136.102 371.071 139.696C372.563 143.289 372.953 147.244 372.193 151.059C371.432 154.874 369.554 158.378 366.797 161.128C364.04 163.879 360.527 165.752 356.703 166.511C352.879 167.27 348.915 166.88 345.313 165.392C341.711 163.903 338.632 161.382 336.465 158.148C334.299 154.914 333.143 151.112 333.143 147.222C333.148 142.008 335.227 137.008 338.923 133.321C342.619 129.634 347.63 127.561 352.857 127.555ZM254.286 245.555C250.8 245.555 247.457 244.174 244.992 241.715C242.528 239.256 241.143 235.921 241.143 232.444V204.735L280.095 170.195C283.853 166.87 288.741 165.099 293.762 165.244C298.783 165.389 303.56 167.438 307.12 170.973L333.796 197.528L285.652 245.555H254.286ZM398.857 232.444C398.857 235.921 397.472 239.256 395.008 241.715C392.543 244.174 389.2 245.555 385.714 245.555H304.241L354.11 195.807C357.641 192.811 362.121 191.161 366.756 191.149C371.391 191.137 375.88 192.764 379.426 195.741L398.857 211.892V232.444Z" fill="#BABABA"/>
</svg>
