<svg width="2200" height="538" viewBox="0 0 2200 538" fill="none" xmlns="http://www.w3.org/2000/svg">
<rect width="2200" height="538" fill="#DBDBDB"/>
<path d="M1227.14 117H972.857C959.374 117.015 946.446 122.357 936.912 131.856C927.378 141.355 922.015 154.234 922 167.667V370.333C922.015 383.766 927.378 396.645 936.912 406.144C946.446 415.643 959.374 420.985 972.857 421H1227.14C1240.63 420.985 1253.55 415.643 1263.09 406.144C1272.62 396.645 1277.99 383.766 1278 370.333V167.667C1277.99 154.234 1272.62 141.355 1263.09 131.856C1253.55 122.357 1240.63 117.015 1227.14 117ZM1163.57 167.667C1171.12 167.667 1178.49 169.895 1184.76 174.071C1191.04 178.246 1195.92 184.181 1198.81 191.125C1201.7 198.068 1202.45 205.709 1200.98 213.08C1199.51 220.451 1195.88 227.222 1190.54 232.537C1185.21 237.851 1178.41 241.47 1171.01 242.937C1163.61 244.403 1155.94 243.65 1148.97 240.774C1142.01 237.898 1136.05 233.027 1131.86 226.778C1127.67 220.529 1125.43 213.182 1125.43 205.667C1125.44 195.592 1129.46 185.932 1136.61 178.808C1143.76 171.684 1153.46 167.677 1163.57 167.667ZM972.857 395.667C966.113 395.667 959.645 392.998 954.876 388.247C950.108 383.496 947.429 377.052 947.429 370.333V316.793L1022.79 250.055C1030.06 243.631 1039.52 240.21 1049.24 240.489C1058.95 240.769 1068.19 244.728 1075.08 251.56L1126.69 302.868L1033.54 395.667H972.857ZM1252.57 370.333C1252.57 377.052 1249.89 383.496 1245.12 388.247C1240.35 392.998 1233.89 395.667 1227.14 395.667H1069.51L1166 299.542C1172.83 293.755 1181.5 290.566 1190.46 290.543C1199.43 290.52 1208.12 293.664 1214.98 299.416L1252.57 330.623V370.333Z" fill="#BABABA"/>
</svg>
