<svg width="2200" height="538" viewBox="0 0 2200 538" fill="none" xmlns="http://www.w3.org/2000/svg">
<rect width="2200" height="538" fill="#DBDBDB"/>
<path d="M1191.43 160H1008.57C998.875 160.011 989.579 163.842 982.723 170.653C975.867 177.465 972.011 186.7 972 196.333V341.667C972.011 351.3 975.867 360.535 982.723 367.347C989.579 374.158 998.875 377.989 1008.57 378H1191.43C1201.12 377.989 1210.42 374.158 1217.28 367.347C1224.13 360.535 1227.99 351.3 1228 341.667V196.333C1227.99 186.7 1224.13 177.465 1217.28 170.653C1210.42 163.842 1201.12 160.011 1191.43 160ZM1145.71 196.333C1151.14 196.333 1156.44 197.932 1160.95 200.926C1165.46 203.92 1168.98 208.176 1171.05 213.155C1173.13 218.134 1173.67 223.614 1172.62 228.9C1171.56 234.186 1168.95 239.041 1165.11 242.852C1161.27 246.663 1156.39 249.258 1151.07 250.31C1145.74 251.361 1140.23 250.822 1135.22 248.759C1130.21 246.697 1125.92 243.204 1122.91 238.723C1119.89 234.241 1118.29 228.973 1118.29 223.583C1118.29 216.358 1121.19 209.432 1126.33 204.323C1131.47 199.214 1138.44 196.341 1145.71 196.333ZM1008.57 359.833C1003.72 359.833 999.071 357.919 995.641 354.512C992.212 351.106 990.286 346.485 990.286 341.667V303.273L1044.48 255.415C1049.71 250.808 1056.51 248.354 1063.5 248.555C1070.48 248.755 1077.13 251.594 1082.08 256.493L1119.19 293.287L1052.21 359.833H1008.57ZM1209.71 341.667C1209.71 346.485 1207.79 351.106 1204.36 354.512C1200.93 357.919 1196.28 359.833 1191.43 359.833H1078.07L1147.46 290.902C1152.37 286.752 1158.6 284.465 1165.05 284.449C1171.5 284.432 1177.75 286.686 1182.68 290.811L1209.71 313.19V341.667Z" fill="#BABABA"/>
</svg>
