<svg width="296" height="296" viewBox="0 0 296 296" fill="none" xmlns="http://www.w3.org/2000/svg">
<rect width="296" height="296" fill="#DBDBDB"/>
<path d="M181.985 107.791H114.454C110.873 107.795 107.44 109.214 104.908 111.738C102.376 114.262 100.952 117.683 100.948 121.252V175.096C100.952 178.665 102.376 182.086 104.908 184.61C107.44 187.133 110.873 188.553 114.454 188.557H181.985C185.566 188.553 188.999 187.133 191.531 184.61C194.063 182.086 195.487 178.665 195.491 175.096V121.252C195.487 117.683 194.063 114.262 191.531 111.738C188.999 109.214 185.566 107.795 181.985 107.791ZM165.102 121.252C167.106 121.252 169.064 121.844 170.73 122.953C172.396 124.063 173.694 125.639 174.461 127.484C175.228 129.329 175.428 131.359 175.037 133.317C174.646 135.276 173.682 137.074 172.265 138.486C170.848 139.898 169.043 140.86 167.079 141.249C165.114 141.639 163.077 141.439 161.226 140.675C159.375 139.911 157.793 138.617 156.68 136.957C155.567 135.296 154.973 133.344 154.973 131.348C154.975 128.671 156.044 126.105 157.943 124.212C159.842 122.319 162.417 121.255 165.102 121.252ZM114.454 181.826C112.663 181.826 110.945 181.117 109.679 179.855C108.413 178.593 107.701 176.881 107.701 175.096V160.871L127.716 143.141C129.647 141.434 132.158 140.525 134.738 140.599C137.318 140.673 139.773 141.725 141.602 143.54L155.308 157.172L130.571 181.826H114.454ZM188.738 175.096C188.738 176.881 188.027 178.593 186.76 179.855C185.494 181.117 183.776 181.826 181.985 181.826H140.122L165.746 156.288C167.56 154.751 169.862 153.903 172.244 153.897C174.625 153.891 176.932 154.726 178.754 156.255L188.738 164.546V175.096Z" fill="#BABABA"/>
</svg>
