<svg width="406" height="228" viewBox="0 0 406 228" fill="none" xmlns="http://www.w3.org/2000/svg">
<rect width="405.333" height="228" fill="#DBDBDB"/>
<path d="M244.487 63.9951H161.18C156.763 63.9999 152.528 65.7462 149.404 68.8508C146.281 71.9553 144.524 76.1647 144.519 80.5552V146.796C144.524 151.186 146.281 155.395 149.404 158.5C152.528 161.605 156.763 163.351 161.18 163.356H244.487C248.904 163.351 253.139 161.605 256.263 158.5C259.386 155.395 261.143 151.186 261.148 146.796V80.5552C261.143 76.1647 259.386 71.9553 256.263 68.8508C253.139 65.7462 248.904 63.9999 244.487 63.9951ZM223.66 80.5552C226.132 80.5552 228.548 81.2836 230.602 82.6484C232.657 84.0131 234.259 85.9529 235.205 88.2223C236.151 90.4918 236.398 92.9891 235.916 95.3983C235.434 97.8076 234.244 100.021 232.496 101.758C230.748 103.495 228.522 104.677 226.098 105.157C223.674 105.636 221.161 105.39 218.878 104.45C216.595 103.51 214.643 101.918 213.27 99.8755C211.897 97.833 211.164 95.4317 211.164 92.9753C211.168 89.6823 212.485 86.5252 214.828 84.1967C217.171 81.8683 220.347 80.5586 223.66 80.5552ZM161.18 155.076C158.971 155.076 156.852 154.203 155.289 152.65C153.727 151.098 152.849 148.992 152.849 146.796V129.296L177.539 107.483C179.922 105.384 183.02 104.265 186.202 104.357C189.385 104.448 192.413 105.742 194.669 107.975L211.578 124.745L181.062 155.076H161.18ZM252.817 146.796C252.817 148.992 251.94 151.098 250.377 152.65C248.815 154.203 246.696 155.076 244.487 155.076H192.844L224.454 123.658C226.692 121.766 229.532 120.724 232.47 120.717C235.408 120.709 238.253 121.737 240.501 123.617L252.817 133.817V146.796Z" fill="#BABABA"/>
</svg>
