<svg width="406" height="406" viewBox="0 0 406 406" fill="none" xmlns="http://www.w3.org/2000/svg">
<rect width="405.333" height="405.333" fill="#DBDBDB"/>
<path d="M250.398 146.195H155.552C150.523 146.201 145.701 148.194 142.145 151.739C138.589 155.283 136.588 160.089 136.583 165.101V240.723C136.588 245.736 138.589 250.541 142.145 254.086C145.701 257.63 150.523 259.624 155.552 259.629H250.398C255.427 259.624 260.249 257.63 263.805 254.086C267.361 250.541 269.362 245.736 269.367 240.723V165.101C269.362 160.089 267.361 155.283 263.805 151.739C260.249 148.194 255.427 146.201 250.398 146.195ZM226.687 165.101C229.5 165.101 232.251 165.933 234.591 167.491C236.93 169.049 238.754 171.263 239.83 173.854C240.907 176.445 241.189 179.296 240.64 182.046C240.091 184.797 238.736 187.323 236.746 189.306C234.757 191.289 232.222 192.64 229.462 193.187C226.702 193.734 223.842 193.453 221.242 192.38C218.643 191.307 216.421 189.489 214.857 187.158C213.294 184.826 212.46 182.085 212.46 179.28C212.464 175.521 213.964 171.917 216.631 169.258C219.298 166.6 222.915 165.105 226.687 165.101ZM155.552 250.176C153.037 250.176 150.624 249.18 148.846 247.408C147.067 245.635 146.068 243.23 146.068 240.723V220.745L174.178 195.843C176.89 193.446 180.417 192.169 184.04 192.274C187.664 192.378 191.111 193.855 193.68 196.405L212.931 215.549L178.188 250.176H155.552ZM259.883 240.723C259.883 243.23 258.883 245.635 257.105 247.408C255.326 249.18 252.914 250.176 250.398 250.176H191.602L227.591 214.309C230.139 212.149 233.372 210.959 236.717 210.951C240.061 210.942 243.301 212.115 245.86 214.261L259.883 225.906V240.723Z" fill="#BABABA"/>
</svg>
