<svg width="624" height="624" viewBox="0 0 624 624" fill="none" xmlns="http://www.w3.org/2000/svg">
<rect width="624" height="624" fill="#DBDBDB"/>
<path d="M385.481 225.063H239.468C231.726 225.072 224.303 228.141 218.828 233.597C213.354 239.054 210.274 246.452 210.266 254.168V370.587C210.274 378.303 213.354 385.701 218.828 391.158C224.303 396.614 231.726 399.683 239.468 399.692H385.481C393.224 399.683 400.646 396.614 406.121 391.158C411.596 385.701 414.675 378.303 414.684 370.587V254.168C414.675 246.452 411.596 239.054 406.121 233.597C400.646 228.141 393.224 225.072 385.481 225.063ZM348.978 254.168C353.31 254.168 357.544 255.448 361.146 257.847C364.748 260.246 367.555 263.655 369.213 267.643C370.87 271.632 371.304 276.021 370.459 280.255C369.614 284.49 367.528 288.379 364.465 291.432C361.402 294.485 357.499 296.564 353.251 297.406C349.002 298.248 344.598 297.816 340.596 296.164C336.594 294.512 333.174 291.714 330.767 288.124C328.361 284.534 327.076 280.314 327.076 275.997C327.082 270.209 329.392 264.661 333.498 260.568C337.604 256.476 343.171 254.174 348.978 254.168ZM239.468 385.139C235.596 385.139 231.882 383.606 229.144 380.877C226.405 378.148 224.867 374.447 224.867 370.587V339.832L268.142 301.495C272.317 297.805 277.747 295.839 283.325 296C288.904 296.16 294.211 298.435 298.166 302.359L327.802 331.832L274.315 385.139H239.468ZM400.082 370.587C400.082 374.447 398.544 378.148 395.806 380.877C393.067 383.606 389.354 385.139 385.481 385.139H294.967L350.37 329.922C354.292 326.598 359.27 324.766 364.419 324.753C369.568 324.739 374.556 326.545 378.495 329.85L400.082 347.776V370.587Z" fill="#BABABA"/>
</svg>
