<svg width="624" height="350" viewBox="0 0 624 350" fill="none" xmlns="http://www.w3.org/2000/svg">
<rect width="624" height="350" fill="#DBDBDB"/>
<path d="M376.071 98.5186H247.929C241.134 98.5259 234.619 101.214 229.815 105.994C225.01 110.773 222.307 117.253 222.3 124.012V225.988C222.307 232.747 225.01 239.227 229.815 244.006C234.619 248.786 241.134 251.474 247.929 251.482H376.071C382.866 251.474 389.381 248.786 394.185 244.006C398.99 239.227 401.693 232.747 401.7 225.988V124.012C401.693 117.253 398.99 110.773 394.185 105.994C389.381 101.214 382.866 98.5259 376.071 98.5186ZM344.036 124.012C347.837 124.012 351.554 125.134 354.715 127.235C357.876 129.336 360.339 132.322 361.794 135.816C363.249 139.309 363.629 143.154 362.888 146.863C362.146 150.572 360.315 153.979 357.627 156.653C354.939 159.327 351.514 161.148 347.786 161.886C344.057 162.623 340.192 162.245 336.68 160.798C333.168 159.35 330.166 156.9 328.054 153.755C325.942 150.611 324.814 146.914 324.814 143.133C324.82 138.063 326.846 133.203 330.45 129.618C334.054 126.034 338.939 124.018 344.036 124.012ZM247.929 238.735C244.53 238.735 241.271 237.392 238.867 235.001C236.464 232.611 235.114 229.368 235.114 225.988V199.048L273.093 165.468C276.757 162.235 281.522 160.514 286.418 160.654C291.314 160.795 295.971 162.787 299.442 166.225L325.451 192.041L278.511 238.735H247.929ZM388.886 225.988C388.886 229.368 387.536 232.611 385.132 235.001C382.729 237.392 379.47 238.735 376.071 238.735H296.635L345.257 190.368C348.7 187.456 353.068 185.852 357.587 185.84C362.106 185.828 366.483 187.41 369.941 190.304L388.886 206.007V225.988Z" fill="#BABABA"/>
</svg>
