<svg width="1080" height="1920" viewBox="0 0 1080 1920" fill="none" xmlns="http://www.w3.org/2000/svg">
<g clip-path="url(#clip0_72_34395)">
<rect width="1920" height="1080" transform="translate(0 1920) rotate(-90)" fill="#DBDBDB"/>
<path d="M677.857 795H402.143C387.523 795.016 373.506 800.816 363.169 811.127C352.831 821.438 347.016 835.418 347 850V1070C347.016 1084.58 352.831 1098.56 363.169 1108.87C373.506 1119.18 387.523 1124.98 402.143 1125H677.857C692.477 1124.98 706.494 1119.18 716.831 1108.87C727.169 1098.56 732.984 1084.58 733 1070V850C732.984 835.418 727.169 821.438 716.831 811.127C706.494 800.816 692.477 795.016 677.857 795ZM608.929 850C617.108 850 625.104 852.419 631.905 856.952C638.707 861.484 644.007 867.927 647.138 875.464C650.268 883.002 651.087 891.296 649.491 899.297C647.895 907.299 643.956 914.649 638.172 920.418C632.389 926.187 625.019 930.116 616.997 931.707C608.974 933.299 600.659 932.482 593.102 929.36C585.545 926.238 579.086 920.951 574.541 914.167C569.997 907.384 567.571 899.408 567.571 891.25C567.583 880.313 571.944 869.828 579.697 862.094C587.451 854.361 597.963 850.011 608.929 850ZM402.143 1097.5C394.83 1097.5 387.818 1094.6 382.647 1089.45C377.476 1084.29 374.571 1077.29 374.571 1070V1011.88L456.286 939.435C464.17 932.461 474.424 928.747 484.957 929.051C495.491 929.354 505.513 933.652 512.98 941.068L568.941 996.764L467.944 1097.5H402.143ZM705.429 1070C705.429 1077.29 702.524 1084.29 697.353 1089.45C692.182 1094.6 685.17 1097.5 677.857 1097.5H506.94L611.556 993.155C618.963 986.872 628.363 983.411 638.086 983.386C647.809 983.361 657.226 986.773 664.666 993.017L705.429 1026.89V1070Z" fill="#BABABA"/>
</g>
<defs>
<clipPath id="clip0_72_34395">
<rect width="1920" height="1080" fill="white" transform="translate(0 1920) rotate(-90)"/>
</clipPath>
</defs>
</svg>
