<svg width="48" height="48" viewBox="0 0 48 48" fill="none" xmlns="http://www.w3.org/2000/svg">
<rect width="48" height="48" rx="8" fill="#E3E3E3"/>
<path fill-rule="evenodd" clip-rule="evenodd" d="M17.6002 17.6002V16.0002C17.6002 14.7272 18.1059 13.5063 19.0061 12.6061C19.9063 11.7059 21.1272 11.2002 22.4002 11.2002H25.6002C26.8732 11.2002 28.0941 11.7059 28.9943 12.6061C29.8945 13.5063 30.4002 14.7272 30.4002 16.0002V17.6002H33.6002C34.4489 17.6002 35.2628 17.9373 35.8629 18.5375C36.4631 19.1376 36.8002 19.9515 36.8002 20.8002V26.5122C32.7036 28.0302 28.369 28.805 24.0002 28.8002C19.6314 28.805 15.2968 28.0302 11.2002 26.5122V20.8002C11.2002 19.9515 11.5373 19.1376 12.1375 18.5375C12.7376 17.9373 13.5515 17.6002 14.4002 17.6002H17.6002ZM20.8002 16.0002C20.8002 15.5758 20.9688 15.1689 21.2688 14.8688C21.5689 14.5688 21.9758 14.4002 22.4002 14.4002H25.6002C26.0245 14.4002 26.4315 14.5688 26.7316 14.8688C27.0316 15.1689 27.2002 15.5758 27.2002 16.0002V17.6002H20.8002V16.0002ZM22.4002 24.0002C22.4002 23.5758 22.5688 23.1689 22.8688 22.8688C23.1689 22.5688 23.5758 22.4002 24.0002 22.4002H24.0162C24.4405 22.4002 24.8475 22.5688 25.1476 22.8688C25.4476 23.1689 25.6162 23.5758 25.6162 24.0002C25.6162 24.4245 25.4476 24.8315 25.1476 25.1316C24.8475 25.4316 24.4405 25.6002 24.0162 25.6002H24.0002C23.5758 25.6002 23.1689 25.4316 22.8688 25.1316C22.5688 24.8315 22.4002 24.4245 22.4002 24.0002Z" fill="black"/>
<path d="M11.2002 29.9072V33.6C11.2002 34.4487 11.5373 35.2627 12.1375 35.8628C12.7376 36.4629 13.5515 36.8 14.4002 36.8H33.6002C34.4489 36.8 35.2628 36.4629 35.8629 35.8628C36.4631 35.2627 36.8002 34.4487 36.8002 33.6V29.9072C32.676 31.2972 28.3524 32.0042 24.0002 32C19.5266 32 15.221 31.264 11.2002 29.9072Z" fill="black"/>
</svg>
