<svg width="170" height="41" viewBox="0 0 170 41" fill="none" xmlns="http://www.w3.org/2000/svg">
<path d="M51.2982 28.3914H63.2502V24.7914H55.5462V11.2314H51.2982V28.3914Z" fill="#383838"/>
<path d="M70.3317 25.9916C68.6277 25.9916 67.7397 24.5036 67.7397 22.2716C67.7397 20.0396 68.6277 18.5276 70.3317 18.5276C72.0357 18.5276 72.9477 20.0396 72.9477 22.2716C72.9477 24.5036 72.0357 25.9916 70.3317 25.9916ZM70.3557 28.7756C74.3157 28.7756 76.9077 25.9676 76.9077 22.2716C76.9077 18.5756 74.3157 15.7676 70.3557 15.7676C66.4197 15.7676 63.7797 18.5756 63.7797 22.2716C63.7797 25.9676 66.4197 28.7756 70.3557 28.7756Z" fill="#383838"/>
<path d="M83.7619 32.6392C85.5859 32.6392 87.1939 32.2312 88.2739 31.2712C89.2579 30.3832 89.9059 29.0392 89.9059 27.1912V16.1032H86.1619V17.4232H86.1139C85.3939 16.3912 84.2899 15.7432 82.6579 15.7432C79.6099 15.7432 77.4979 18.2872 77.4979 21.8872C77.4979 25.6552 80.0659 27.7192 82.8259 27.7192C84.3139 27.7192 85.2499 27.1192 85.9699 26.3032H86.0659V27.5272C86.0659 29.0152 85.3699 29.8792 83.7139 29.8792C82.4179 29.8792 81.7699 29.3272 81.5539 28.6792H77.7619C78.1459 31.2472 80.3779 32.6392 83.7619 32.6392ZM83.7379 24.8152C82.2739 24.8152 81.3139 23.6152 81.3139 21.7672C81.3139 19.8952 82.2739 18.6952 83.7379 18.6952C85.3699 18.6952 86.2339 20.0872 86.2339 21.7432C86.2339 23.4712 85.4419 24.8152 83.7379 24.8152Z" fill="#383838"/>
<path d="M97.6044 25.9916C95.9004 25.9916 95.0124 24.5036 95.0124 22.2716C95.0124 20.0396 95.9004 18.5276 97.6044 18.5276C99.3084 18.5276 100.22 20.0396 100.22 22.2716C100.22 24.5036 99.3084 25.9916 97.6044 25.9916ZM97.6284 28.7756C101.588 28.7756 104.18 25.9676 104.18 22.2716C104.18 18.5756 101.588 15.7676 97.6284 15.7676C93.6924 15.7676 91.0524 18.5756 91.0524 22.2716C91.0524 25.9676 93.6924 28.7756 97.6284 28.7756Z" fill="#383838"/>
<path d="M105.322 28.3914H109.234V16.1034H105.322V28.3914ZM105.322 14.3994H109.234V11.2314H105.322V14.3994Z" fill="#383838"/>
<path d="M110.933 32.4472H114.845V27.1192H114.893C115.661 28.1512 116.789 28.7752 118.373 28.7752C121.589 28.7752 123.725 26.2312 123.725 22.2472C123.725 18.5512 121.733 15.7432 118.469 15.7432C116.789 15.7432 115.589 16.4872 114.749 17.5912H114.677V16.1032H110.933V32.4472ZM117.365 25.7512C115.685 25.7512 114.725 24.3832 114.725 22.3912C114.725 20.3992 115.589 18.8872 117.293 18.8872C118.973 18.8872 119.765 20.2792 119.765 22.3912C119.765 24.4792 118.853 25.7512 117.365 25.7512Z" fill="#383838"/>
<path d="M130.094 28.7752C133.31 28.7752 135.686 27.3832 135.686 24.6952C135.686 21.5512 133.142 20.9992 130.982 20.6392C129.422 20.3512 128.03 20.2312 128.03 19.3672C128.03 18.5992 128.774 18.2392 129.734 18.2392C130.814 18.2392 131.558 18.5752 131.702 19.6792H135.302C135.11 17.2552 133.238 15.7432 129.758 15.7432C126.854 15.7432 124.454 17.0872 124.454 19.6792C124.454 22.5592 126.734 23.1352 128.87 23.4952C130.502 23.7832 131.99 23.9032 131.99 25.0072C131.99 25.7992 131.246 26.2312 130.07 26.2312C128.774 26.2312 127.958 25.6312 127.814 24.4072H124.118C124.238 27.1192 126.494 28.7752 130.094 28.7752Z" fill="#383838"/>
<path d="M141 28.7515C142.704 28.7515 143.784 28.0795 144.672 26.8795H144.744V28.3915H148.488V16.1035H144.576V22.9675C144.576 24.4315 143.76 25.4395 142.416 25.4395C141.168 25.4395 140.568 24.6955 140.568 23.3515V16.1035H136.68V24.1675C136.68 26.9035 138.168 28.7515 141 28.7515Z" fill="#383838"/>
<path d="M150.189 28.3912H154.101V21.5032C154.101 20.0392 154.821 19.0072 156.045 19.0072C157.221 19.0072 157.773 19.7752 157.773 21.0952V28.3912H161.685V21.5032C161.685 20.0392 162.381 19.0072 163.629 19.0072C164.805 19.0072 165.357 19.7752 165.357 21.0952V28.3912H169.269V20.3992C169.269 17.6392 167.877 15.7432 165.093 15.7432C163.509 15.7432 162.189 16.4152 161.229 17.9032H161.181C160.557 16.5832 159.333 15.7432 157.725 15.7432C155.949 15.7432 154.773 16.5832 154.005 17.8552H153.933V16.1032H150.189V28.3912Z" fill="#383838"/>
<path fill-rule="evenodd" clip-rule="evenodd" d="M21.1227 0C32.3845 0 41.514 9.12947 41.514 20.3913C41.514 31.6532 32.3845 40.7827 21.1227 40.7827C9.86082 40.7827 0.731323 31.6532 0.731323 20.3913C0.731323 9.12947 9.86082 0 21.1227 0ZM40.7313 20.3913C40.7313 9.56177 31.9522 0.782621 21.1227 0.782621C20.2491 0.782621 19.389 0.839741 18.5456 0.950451C19.0905 0.902811 19.6419 0.878491 20.1991 0.878491C30.5473 0.878491 38.9362 9.26737 38.9362 19.6156C38.9362 29.9637 30.5473 38.3526 20.1991 38.3526C10.4021 38.3526 2.36132 30.8337 1.53249 21.2516C1.98274 31.682 10.5813 40 21.1227 40C31.9522 40 40.7313 31.2209 40.7313 20.3913ZM38.1535 19.6156C38.1535 9.69957 30.1151 1.66112 20.1991 1.66112C19.394 1.66112 18.6012 1.71412 17.8241 1.81681C18.3026 1.77655 18.7867 1.75601 19.2756 1.75601C28.7102 1.75601 36.3584 9.40427 36.3584 18.8388C36.3584 28.2734 28.7102 35.9216 19.2756 35.9216C10.355 35.9216 3.03135 29.0839 2.25998 20.3637C2.65217 29.9327 10.5338 37.57 20.1991 37.57C30.1151 37.57 38.1535 29.5315 38.1535 19.6156ZM19.2756 2.53864C28.2779 2.53864 35.5758 9.83647 35.5758 18.8388C35.5758 27.8411 28.2779 35.1389 19.2756 35.1389C10.4819 35.1389 3.3145 28.1753 2.98715 19.4616C3.6939 27.3266 10.3032 33.4905 18.3522 33.4905C26.8725 33.4905 33.7797 26.5834 33.7797 18.063C33.7797 9.54257 26.8725 2.63548 18.3522 2.63548C17.9114 2.63548 17.4749 2.65397 17.0435 2.6902C17.7733 2.59027 18.5184 2.53864 19.2756 2.53864ZM32.997 18.063C32.997 9.97487 26.4403 3.41811 18.3522 3.41811C17.6688 3.41811 16.9963 3.46491 16.3379 3.55549C16.6974 3.52735 17.0608 3.51302 17.4276 3.51302C25.0344 3.51302 31.2009 9.67947 31.2009 17.2863C31.2009 24.893 25.0344 31.0595 17.4276 31.0595C10.2679 31.0595 4.38424 25.5966 3.71733 18.6117C4.00586 26.4456 10.4477 32.7079 18.3522 32.7079C26.4403 32.7079 32.997 26.1512 32.997 18.063ZM17.4276 4.29564C24.6021 4.29564 30.4182 10.1118 30.4182 17.2863C30.4182 24.4608 24.6021 30.2769 17.4276 30.2769C10.3944 30.2769 4.66668 24.6877 4.44374 17.7087C5.04587 23.8389 10.2157 28.6285 16.5041 28.6285C23.1973 28.6285 28.6231 23.2026 28.6231 16.5095C28.6231 9.81637 23.1973 4.39053 16.5041 4.39053C16.1972 4.39053 15.8929 4.40194 15.5917 4.42436C16.1915 4.33952 16.8044 4.29564 17.4276 4.29564ZM27.8405 16.5095C27.8405 10.2486 22.765 5.17316 16.5041 5.17316C15.9326 5.17316 15.371 5.21545 14.8222 5.29707C15.0727 5.27913 15.3256 5.27 15.5807 5.27C21.3596 5.27 26.0444 9.95477 26.0444 15.7337C26.0444 21.5127 21.3596 26.1974 15.5807 26.1974C10.1654 26.1974 5.71105 22.0839 5.17172 16.8111C5.33161 22.9326 10.3441 27.8459 16.5041 27.8459C22.765 27.8459 27.8405 22.7704 27.8405 16.5095ZM15.5807 6.05263C20.9274 6.05263 25.2617 10.387 25.2617 15.7337C25.2617 21.0805 20.9274 25.4148 15.5807 25.4148C10.302 25.4148 6.01004 21.1901 5.90165 15.9374C6.38928 20.3413 10.1232 23.7664 14.6572 23.7664C19.5225 23.7664 23.4666 19.8223 23.4666 14.957C23.4666 10.0917 19.5225 6.14752 14.6572 6.14752C14.4711 6.14752 14.2864 6.15329 14.1032 6.16466C14.5849 6.09089 15.0783 6.05263 15.5807 6.05263ZM22.684 14.957C22.684 10.5239 19.0903 6.93015 14.6572 6.93015C14.212 6.93015 13.7753 6.96639 13.3498 7.03608C13.4766 7.0294 13.6042 7.02602 13.7327 7.02602C17.6843 7.02602 20.8878 10.2295 20.8878 14.1812C20.8878 18.1329 17.6843 21.3364 13.7327 21.3364C10.0787 21.3364 7.06448 18.5974 6.631 15.0606C6.6865 19.446 10.2587 22.9838 14.6572 22.9838C19.0903 22.9838 22.684 19.3901 22.684 14.957ZM13.7327 7.80864C17.2521 7.80864 20.1052 10.6617 20.1052 14.1812C20.1052 17.7007 17.2521 20.5537 13.7327 20.5537C10.2132 20.5537 7.36011 17.7007 7.36011 14.1812C7.36011 14.1728 7.36013 14.1643 7.36016 14.1559C7.72658 16.8379 10.0265 18.9044 12.8092 18.9044C15.8467 18.9044 18.3091 16.442 18.3091 13.4045C18.3091 10.3669 15.8467 7.90453 12.8092 7.90453C12.7405 7.90453 12.6721 7.90578 12.604 7.90828C12.9703 7.84281 13.3475 7.80864 13.7327 7.80864ZM17.5264 13.4045C17.5264 10.7992 15.4145 8.68715 12.8092 8.68715C10.2039 8.68715 8.09188 10.7992 8.09188 13.4045C8.09188 16.0097 10.2039 18.1217 12.8092 18.1217C15.4145 18.1217 17.5264 16.0097 17.5264 13.4045Z" fill="#383838"/>
</svg>
