<svg width="84" height="34" viewBox="0 0 84 34" fill="none" xmlns="http://www.w3.org/2000/svg">
<path d="M0 26.1818V0H5.53551V21.6179H16.7599V26.1818H0Z" fill="black"/>
<path d="M29.1957 26.5653C27.2099 26.5653 25.4925 26.1435 24.0437 25.2997C22.6033 24.4474 21.4911 23.2628 20.707 21.7457C19.9229 20.2202 19.5309 18.4517 19.5309 16.4403C19.5309 14.4119 19.9229 12.6392 20.707 11.1222C21.4911 9.59659 22.6033 8.41193 24.0437 7.56818C25.4925 6.71591 27.2099 6.28977 29.1957 6.28977C31.1815 6.28977 32.8945 6.71591 34.3349 7.56818C35.7837 8.41193 36.9002 9.59659 37.6843 11.1222C38.4684 12.6392 38.8604 14.4119 38.8604 16.4403C38.8604 18.4517 38.4684 20.2202 37.6843 21.7457C36.9002 23.2628 35.7837 24.4474 34.3349 25.2997C32.8945 26.1435 31.1815 26.5653 29.1957 26.5653ZM29.2212 22.3466C30.1246 22.3466 30.8789 22.0909 31.484 21.5795C32.0891 21.0597 32.5451 20.3523 32.8519 19.4574C33.1673 18.5625 33.3249 17.544 33.3249 16.402C33.3249 15.2599 33.1673 14.2415 32.8519 13.3466C32.5451 12.4517 32.0891 11.7443 31.484 11.2244C30.8789 10.7045 30.1246 10.4446 29.2212 10.4446C28.3093 10.4446 27.5423 10.7045 26.9201 11.2244C26.3065 11.7443 25.842 12.4517 25.5266 13.3466C25.2198 14.2415 25.0664 15.2599 25.0664 16.402C25.0664 17.544 25.2198 18.5625 25.5266 19.4574C25.842 20.3523 26.3065 21.0597 26.9201 21.5795C27.5423 22.0909 28.3093 22.3466 29.2212 22.3466Z" fill="black"/>
<path d="M51.2482 33.9545C49.484 33.9545 47.9712 33.7116 46.7099 33.2259C45.457 32.7486 44.4599 32.0966 43.7184 31.2699C42.9769 30.4432 42.4954 29.5142 42.2738 28.483L47.3107 27.8054C47.4641 28.1974 47.707 28.5639 48.0394 28.9048C48.3718 29.2457 48.8107 29.5185 49.3562 29.723C49.9102 29.9361 50.5835 30.0426 51.3761 30.0426C52.5607 30.0426 53.5366 29.7528 54.3036 29.1733C55.0792 28.6023 55.467 27.6435 55.467 26.2969V22.7045H55.2369C54.9982 23.25 54.6403 23.7656 54.163 24.2514C53.6857 24.7372 53.0721 25.1335 52.3221 25.4403C51.5721 25.7472 50.6772 25.9006 49.6374 25.9006C48.163 25.9006 46.8207 25.5597 45.6104 24.8778C44.4087 24.1875 43.4499 23.1349 42.734 21.7202C42.0266 20.2969 41.6729 18.4986 41.6729 16.3253C41.6729 14.1009 42.0352 12.2429 42.7596 10.7514C43.484 9.25994 44.4471 8.14347 45.6488 7.40199C46.859 6.66051 48.1843 6.28977 49.6246 6.28977C50.7241 6.28977 51.6445 6.47727 52.386 6.85227C53.1275 7.21875 53.7241 7.67898 54.1758 8.23295C54.636 8.77841 54.9897 9.31534 55.2369 9.84375H55.4414V6.54545H60.8491V26.3736C60.8491 28.044 60.44 29.4418 59.6218 30.5668C58.8036 31.6918 57.6701 32.5355 56.2212 33.098C54.7809 33.669 53.1232 33.9545 51.2482 33.9545ZM51.3633 21.8097C52.2411 21.8097 52.9826 21.5923 53.5877 21.1577C54.2013 20.7145 54.6701 20.0838 54.994 19.2656C55.3263 18.4389 55.4925 17.4503 55.4925 16.2997C55.4925 15.1491 55.3306 14.152 55.0067 13.3082C54.6829 12.456 54.2141 11.7955 53.6005 11.3267C52.9869 10.858 52.2411 10.6236 51.3633 10.6236C50.4684 10.6236 49.7141 10.8665 49.1005 11.3523C48.4869 11.8295 48.0224 12.4943 47.707 13.3466C47.3917 14.1989 47.234 15.1832 47.234 16.2997C47.234 17.4332 47.3917 18.4134 47.707 19.2401C48.0309 20.0582 48.4954 20.6932 49.1005 21.1449C49.7141 21.5881 50.4684 21.8097 51.3633 21.8097Z" fill="black"/>
<path d="M74.055 26.5653C72.0693 26.5653 70.3519 26.1435 68.9031 25.2997C67.4627 24.4474 66.3505 23.2628 65.5664 21.7457C64.7823 20.2202 64.3903 18.4517 64.3903 16.4403C64.3903 14.4119 64.7823 12.6392 65.5664 11.1222C66.3505 9.59659 67.4627 8.41193 68.9031 7.56818C70.3519 6.71591 72.0693 6.28977 74.055 6.28977C76.0408 6.28977 77.7539 6.71591 79.1943 7.56818C80.6431 8.41193 81.7596 9.59659 82.5437 11.1222C83.3278 12.6392 83.7198 14.4119 83.7198 16.4403C83.7198 18.4517 83.3278 20.2202 82.5437 21.7457C81.7596 23.2628 80.6431 24.4474 79.1943 25.2997C77.7539 26.1435 76.0408 26.5653 74.055 26.5653ZM74.0806 22.3466C74.984 22.3466 75.7383 22.0909 76.3434 21.5795C76.9485 21.0597 77.4045 20.3523 77.7113 19.4574C78.0266 18.5625 78.1843 17.544 78.1843 16.402C78.1843 15.2599 78.0266 14.2415 77.7113 13.3466C77.4045 12.4517 76.9485 11.7443 76.3434 11.2244C75.7383 10.7045 74.984 10.4446 74.0806 10.4446C73.1687 10.4446 72.4016 10.7045 71.7795 11.2244C71.1658 11.7443 70.7013 12.4517 70.386 13.3466C70.0792 14.2415 69.9258 15.2599 69.9258 16.402C69.9258 17.544 70.0792 18.5625 70.386 19.4574C70.7013 20.3523 71.1658 21.0597 71.7795 21.5795C72.4016 22.0909 73.1687 22.3466 74.0806 22.3466Z" fill="black"/>
</svg>
