<svg width="1920" height="1080" viewBox="0 0 1920 1080" fill="none" xmlns="http://www.w3.org/2000/svg">
<rect width="1920" height="1080" fill="#DBDBDB"/>
<path d="M1157.14 304H762.857C741.95 304.023 721.906 312.318 707.122 327.066C692.338 341.814 684.023 361.81 684 382.667V697.333C684.023 718.19 692.338 738.186 707.122 752.934C721.906 767.682 741.95 775.977 762.857 776H1157.14C1178.05 775.977 1198.09 767.682 1212.88 752.934C1227.66 738.186 1235.98 718.19 1236 697.333V382.667C1235.98 361.81 1227.66 341.814 1212.88 327.066C1198.09 312.318 1178.05 304.023 1157.14 304ZM1058.57 382.667C1070.27 382.667 1081.7 386.127 1091.43 392.61C1101.16 399.093 1108.74 408.308 1113.21 419.088C1117.69 429.869 1118.86 441.732 1116.58 453.177C1114.3 464.622 1108.66 475.135 1100.39 483.386C1092.12 491.637 1081.58 497.256 1070.11 499.533C1058.64 501.81 1046.75 500.641 1035.94 496.176C1025.13 491.71 1015.89 484.148 1009.4 474.445C1002.9 464.743 999.429 453.336 999.429 441.667C999.445 426.024 1005.68 411.026 1016.77 399.965C1027.86 388.904 1042.89 382.683 1058.57 382.667ZM762.857 736.667C752.4 736.667 742.371 732.523 734.977 725.146C727.583 717.77 723.429 707.765 723.429 697.333V614.205L840.285 510.586C851.56 500.611 866.223 495.299 881.286 495.733C896.35 496.167 910.681 502.314 921.36 512.921L1001.39 592.584L856.956 736.667H762.857ZM1196.57 697.333C1196.57 707.765 1192.42 717.77 1185.02 725.146C1177.63 732.523 1167.6 736.667 1157.14 736.667H912.723L1062.33 587.421C1072.92 578.435 1086.36 573.485 1100.27 573.449C1114.17 573.413 1127.64 578.294 1138.28 587.225L1196.57 635.678V697.333Z" fill="#BABABA"/>
</svg>
